<svg width="17" height="16" viewBox="0 0 17 16" fill="none" xmlns="http://www.w3.org/2000/svg">
<g clip-path="url(#clip0_922_6293)">
<path d="M13.9029 3.07357C13.5623 2.73291 13.1581 2.46267 12.7131 2.2783C12.2681 2.09392 11.7912 1.99902 11.3095 1.99902C10.8279 1.99902 10.3509 2.09392 9.90595 2.2783C9.46098 2.46267 9.05669 2.73291 8.71619 3.07357L8.00952 3.78024L7.30285 3.07357C6.61506 2.38578 5.68221 1.99938 4.70952 1.99938C3.73683 1.99938 2.80398 2.38578 2.11619 3.07357C1.42839 3.76137 1.04199 4.69422 1.04199 5.66691C1.04199 6.6396 1.42839 7.57245 2.11619 8.26024L2.82285 8.96691L8.00952 14.1536L13.1962 8.96691L13.9029 8.26024C14.2435 7.91974 14.5138 7.51545 14.6981 7.07048C14.8825 6.6255 14.9774 6.14857 14.9774 5.66691C14.9774 5.18525 14.8825 4.70831 14.6981 4.26334C14.5138 3.81836 14.2435 3.41408 13.9029 3.07357V3.07357Z" stroke="#222222" stroke-width="2" stroke-linecap="round" stroke-linejoin="round"/>
</g>
<defs>
<clipPath id="clip0_922_6293">
<rect width="16" height="16" fill="white" transform="translate(0.00976562)"/>
</clipPath>
</defs>
</svg>
