<svg width="77" height="16" viewBox="0 0 77 16" fill="none" xmlns="http://www.w3.org/2000/svg">
<path d="M3.77837 7.98017L72.3085 8.11808" stroke="#CACACA" stroke-width="0.836813" stroke-linecap="square" stroke-dasharray="1.67 4.18"/>
<path d="M36.1657 15.5522H37.3333L40.2523 9.19242L43.4632 9.19242C43.9477 9.19242 44.3389 8.6598 44.3389 7.99996C44.3389 7.34012 43.9477 6.8075 43.4632 6.8075L40.2523 6.8075L37.3333 0.447754L36.1657 0.447754L37.6252 6.80754L34.4143 6.80754L33.5386 5.21758H32.6629L33.2467 8L32.6629 10.7824H33.5386L34.4143 9.19242H37.6252L36.1657 15.5522Z" fill="black"/>
<path d="M6.18813 7.94775C6.18813 9.03811 5.8746 9.98977 5.41037 10.6469C4.94462 11.3062 4.37927 11.6109 3.84597 11.6109C3.31266 11.6109 2.74731 11.3062 2.28156 10.6469C1.81733 9.98977 1.5038 9.03811 1.5038 7.94775C1.5038 6.8574 1.81733 5.90574 2.28156 5.2486C2.74731 4.58931 3.31266 4.28457 3.84597 4.28457C4.37927 4.28457 4.94462 4.58931 5.41037 5.2486C5.8746 5.90574 6.18813 6.8574 6.18813 7.94775Z" fill="white" stroke="black" stroke-width="1.67363"/>
<path d="M75.4969 8.63182C75.4969 9.62773 75.1993 10.4959 74.7593 11.0951C74.3189 11.6947 73.7794 11.9791 73.2611 11.9791C72.7427 11.9791 72.2032 11.6947 71.7629 11.0951C71.3229 10.4959 71.0253 9.62773 71.0253 8.63182C71.0253 7.63591 71.3229 6.76774 71.7629 6.16855C72.2032 5.56891 72.7427 5.28457 73.2611 5.28457C73.7794 5.28457 74.3189 5.56891 74.7593 6.16855C75.1993 6.76774 75.4969 7.63591 75.4969 8.63182Z" fill="white" stroke="black" stroke-width="1.67363"/>
</svg>
