<svg width="152" height="16" viewBox="0 0 152 16" fill="none" xmlns="http://www.w3.org/2000/svg">
<path d="M6.70891 7.98017L143.468 8.11808" stroke="#CACACA" stroke-width="0.836813" stroke-linecap="square" stroke-dasharray="1.67 4.18"/>
<path d="M71.3421 15.5522H73.6721L79.4972 9.19242L85.9048 9.19242C86.8718 9.19242 87.6523 8.6598 87.6523 7.99996C87.6523 7.34012 86.8718 6.8075 85.9048 6.8075L79.4972 6.8075L73.6721 0.447754L71.3421 0.447754L74.2546 6.80754L67.847 6.80754L66.0995 5.21758H64.352L65.517 8L64.352 10.7824H66.0995L67.847 9.19242H74.2547L71.3421 15.5522Z" fill="black"/>
<path d="M12.3511 7.94775C12.3511 8.84739 11.8383 9.74306 10.8456 10.4472C9.85489 11.15 8.44273 11.6109 6.84393 11.6109C5.24513 11.6109 3.83297 11.15 2.84224 10.4472C1.84957 9.74306 1.33681 8.84739 1.33681 7.94775C1.33681 7.04811 1.84957 6.15245 2.84224 5.44831C3.83297 4.74555 5.24513 4.28457 6.84393 4.28457C8.44273 4.28457 9.85489 4.74555 10.8456 5.44831C11.8383 6.15245 12.3511 7.04811 12.3511 7.94775Z" fill="white" stroke="black" stroke-width="1.67363"/>
<path d="M150.663 8.63182C150.663 9.42943 150.19 10.2458 149.232 10.8992C148.279 11.5497 146.915 11.9791 145.368 11.9791C143.821 11.9791 142.457 11.5497 141.504 10.8992C140.546 10.2458 140.073 9.42943 140.073 8.63182C140.073 7.8342 140.546 7.01787 141.504 6.36446C142.457 5.7139 143.821 5.28457 145.368 5.28457C146.915 5.28457 148.279 5.7139 149.232 6.36446C150.19 7.01787 150.663 7.8342 150.663 8.63182Z" fill="white" stroke="black" stroke-width="1.67363"/>
</svg>
