<svg width="93" height="17" viewBox="0 0 93 17" fill="none" xmlns="http://www.w3.org/2000/svg">
<path d="M4.2066 8.48017L87.6801 8.61808" stroke="#CACACA" stroke-width="0.836813" stroke-linecap="square" stroke-dasharray="1.67 4.18"/>
<path d="M43.655 16.0522H45.0772L48.6327 9.69242L52.5437 9.69242C53.1339 9.69242 53.6104 9.1598 53.6104 8.49996C53.6104 7.84012 53.1339 7.3075 52.5437 7.3075L48.6327 7.3075L45.0772 0.947754L43.655 0.947754L45.4327 7.30754L41.5217 7.30754L40.4551 5.71758H39.3884L40.0995 8.5L39.3884 11.2824H40.4551L41.5217 9.69242H45.4328L43.655 16.0522Z" fill="black"/>
<path d="M7.32451 8.44775C7.32451 10.5933 5.85195 12.1109 4.28916 12.1109C2.72636 12.1109 1.2538 10.5933 1.2538 8.44775C1.2538 6.30222 2.72636 4.78457 4.28916 4.78457C5.85195 4.78457 7.32451 6.30222 7.32451 8.44775Z" fill="white" stroke="black" stroke-width="1.67363"/>
<path d="M91.746 9.13182C91.746 11.0706 90.3598 12.4791 88.8403 12.4791C87.3207 12.4791 85.9345 11.0706 85.9345 9.13182C85.9345 7.193 87.3207 5.78457 88.8403 5.78457C90.3598 5.78457 91.746 7.193 91.746 9.13182Z" fill="white" stroke="black" stroke-width="1.67363"/>
</svg>
