<svg width="24" height="25" viewBox="0 0 24 25" fill="none" xmlns="http://www.w3.org/2000/svg">
<g clip-path="url(#clip0_1005_5477)">
<path d="M11.8261 2.5C8 2.5 4 5.45652 4 10.3261C4 14.9348 10.9565 21.9783 11.2174 22.2391C11.3913 22.413 11.5652 22.5 11.8261 22.5C12.087 22.5 12.2609 22.413 12.4348 22.2391C12.6957 21.9783 19.6522 14.9348 19.6522 10.3261C19.6522 5.45652 15.6522 2.5 11.8261 2.5ZM11.8261 12.9348C10.3478 12.9348 9.21739 11.8043 9.21739 10.3261C9.21739 8.84783 10.3478 7.71739 11.8261 7.71739C13.3043 7.71739 14.4348 8.84783 14.4348 10.3261C14.4348 11.8043 13.3043 12.9348 11.8261 12.9348Z" fill="#8A8A8A"/>
</g>
<defs>
<clipPath id="clip0_1005_5477">
<rect width="20" height="20" fill="white" transform="translate(2 2.5)"/>
</clipPath>
</defs>
</svg>
