<svg width="24" height="24" viewBox="0 0 24 24" fill="none" xmlns="http://www.w3.org/2000/svg">
<path d="M11.8261 2C8 2 4 4.95652 4 9.82609C4 14.4348 10.9565 21.4783 11.2174 21.7391C11.3913 21.913 11.5652 22 11.8261 22C12.087 22 12.2609 21.913 12.4348 21.7391C12.6957 21.4783 19.6522 14.4348 19.6522 9.82609C19.6522 4.95652 15.6522 2 11.8261 2ZM11.8261 12.4348C10.3478 12.4348 9.21739 11.3043 9.21739 9.82609C9.21739 8.34783 10.3478 7.21739 11.8261 7.21739C13.3043 7.21739 14.4348 8.34783 14.4348 9.82609C14.4348 11.3043 13.3043 12.4348 11.8261 12.4348Z" fill="#8A8A8A"/>
</svg>
