<svg width="25" height="25" viewBox="0 0 25 25" fill="none" xmlns="http://www.w3.org/2000/svg">
<g clip-path="url(#clip0_1005_5190)">
<path d="M12.1591 2.5C8.33301 2.5 4.33301 5.45652 4.33301 10.3261C4.33301 14.9348 11.2895 21.9783 11.5504 22.2391C11.7243 22.413 11.8982 22.5 12.1591 22.5C12.42 22.5 12.5939 22.413 12.7678 22.2391C13.0287 21.9783 19.9852 14.9348 19.9852 10.3261C19.9852 5.45652 15.9852 2.5 12.1591 2.5ZM12.1591 12.9348C10.6808 12.9348 9.5504 11.8043 9.5504 10.3261C9.5504 8.84783 10.6808 7.71739 12.1591 7.71739C13.6374 7.71739 14.7678 8.84783 14.7678 10.3261C14.7678 11.8043 13.6374 12.9348 12.1591 12.9348Z" fill="#8A8A8A"/>
</g>
<defs>
<clipPath id="clip0_1005_5190">
<rect width="20" height="20" fill="white" transform="translate(2.33301 2.5)"/>
</clipPath>
</defs>
</svg>
