<svg width="25" height="25" viewBox="0 0 25 25" fill="none" xmlns="http://www.w3.org/2000/svg">
<g clip-path="url(#clip0_1005_5490)">
<path d="M12.0761 2.5C8.25 2.5 4.25 5.45652 4.25 10.3261C4.25 14.9348 11.2065 21.9783 11.4674 22.2391C11.6413 22.413 11.8152 22.5 12.0761 22.5C12.337 22.5 12.5109 22.413 12.6848 22.2391C12.9457 21.9783 19.9022 14.9348 19.9022 10.3261C19.9022 5.45652 15.9022 2.5 12.0761 2.5ZM12.0761 12.9348C10.5978 12.9348 9.46739 11.8043 9.46739 10.3261C9.46739 8.84783 10.5978 7.71739 12.0761 7.71739C13.5543 7.71739 14.6848 8.84783 14.6848 10.3261C14.6848 11.8043 13.5543 12.9348 12.0761 12.9348Z" fill="#8A8A8A"/>
</g>
<defs>
<clipPath id="clip0_1005_5490">
<rect width="20" height="20" fill="white" transform="translate(2.25 2.5)"/>
</clipPath>
</defs>
</svg>
