<svg width="25" height="24" viewBox="0 0 25 24" fill="none" xmlns="http://www.w3.org/2000/svg">
<path d="M12.1591 2C8.33301 2 4.33301 4.95652 4.33301 9.82609C4.33301 14.4348 11.2895 21.4783 11.5504 21.7391C11.7243 21.913 11.8982 22 12.1591 22C12.42 22 12.5939 21.913 12.7678 21.7391C13.0287 21.4783 19.9852 14.4348 19.9852 9.82609C19.9852 4.95652 15.9852 2 12.1591 2ZM12.1591 12.4348C10.6808 12.4348 9.5504 11.3043 9.5504 9.82609C9.5504 8.34783 10.6808 7.21739 12.1591 7.21739C13.6374 7.21739 14.7678 8.34783 14.7678 9.82609C14.7678 11.3043 13.6374 12.4348 12.1591 12.4348Z" fill="#8A8A8A"/>
</svg>
