<svg width="20" height="21" viewBox="0 0 20 21" fill="none" xmlns="http://www.w3.org/2000/svg">
<g clip-path="url(#clip0_1005_5503)">
<path fill-rule="evenodd" clip-rule="evenodd" d="M8 0.5C3.58172 0.5 0 4.08172 0 8.5C0 12.9183 3.58172 16.5 8 16.5C9.84871 16.5 11.551 15.8729 12.9056 14.8199L18.2929 20.2071C18.6834 20.5976 19.3166 20.5976 19.7071 20.2071C20.0976 19.8166 20.0976 19.1834 19.7071 18.7929L14.3199 13.4056C15.3729 12.051 16 10.3487 16 8.5C16 4.08172 12.4183 0.5 8 0.5ZM2 8.5C2 5.18629 4.68629 2.5 8 2.5C11.3137 2.5 14 5.18629 14 8.5C14 11.8137 11.3137 14.5 8 14.5C4.68629 14.5 2 11.8137 2 8.5Z" fill="#D0D0D0"/>
</g>
<defs>
<clipPath id="clip0_1005_5503">
<rect width="20" height="20" fill="white" transform="translate(0 0.5)"/>
</clipPath>
</defs>
</svg>
