<svg width="27" height="20" viewBox="0 0 27 20" fill="none" xmlns="http://www.w3.org/2000/svg">
<g clip-path="url(#clip0_1074_5017)">
<path d="M6.16798 18.8889C6.16798 18.5369 6.40721 18.2478 6.79819 18.2478C7.17183 18.2478 7.42397 18.5245 7.42397 18.8889C7.42397 19.2534 7.17183 19.5301 6.79819 19.5301C6.40721 19.5301 6.16798 19.2409 6.16798 18.8889ZM7.84989 18.8889V17.8873H7.39815V18.1313C7.25487 17.951 7.03754 17.8379 6.74199 17.8379C6.15976 17.8379 5.70283 18.2781 5.70283 18.8894C5.70283 19.5008 6.1595 19.941 6.74199 19.941C7.03741 19.941 7.25487 19.8278 7.39815 19.6476V19.8907H7.84938V18.8889H7.84989ZM23.1136 18.8889C23.1136 18.5369 23.3528 18.2478 23.7439 18.2478C24.118 18.2478 24.3697 18.5245 24.3697 18.8889C24.3697 19.2534 24.118 19.5301 23.7439 19.5301C23.3529 19.5301 23.1136 19.2409 23.1136 18.8889ZM24.796 18.8889V17.0833H24.3439V18.1313C24.2006 17.951 23.9833 17.8379 23.6877 17.8379C23.1055 17.8379 22.6486 18.2781 22.6486 18.8894C22.6486 19.5008 23.1052 19.941 23.6877 19.941C23.9833 19.941 24.2006 19.8278 24.3439 19.6476V19.8907H24.796V18.8889ZM13.4566 18.2272C13.7477 18.2272 13.9346 18.4031 13.9824 18.7129H12.9045C12.9527 18.4237 13.1348 18.2272 13.4567 18.2272H13.4566ZM13.4657 17.8368C12.8569 17.8368 12.4309 18.2638 12.4309 18.8883C12.4309 19.5251 12.874 19.9399 13.4959 19.9399C13.8088 19.9399 14.0954 19.8646 14.3475 19.6593L14.1261 19.3366C13.952 19.4708 13.7302 19.5461 13.5218 19.5461C13.2306 19.5461 12.9656 19.4161 12.9004 19.0556H14.443C14.4474 19.0014 14.4519 18.9468 14.4519 18.8882C14.4474 18.2639 14.0469 17.8366 13.4654 17.8366L13.4657 17.8368ZM18.9195 18.8882C18.9195 18.5362 19.1587 18.2471 19.5497 18.2471C19.9233 18.2471 20.1755 18.5238 20.1755 18.8882C20.1755 19.2526 19.9233 19.5293 19.5497 19.5293C19.1587 19.5293 18.9193 19.2402 18.9193 18.8882H18.9195ZM20.6012 18.8882V17.8873H20.1498V18.1313C20.006 17.951 19.7892 17.8379 19.4936 17.8379C18.9114 17.8379 18.4544 18.2781 18.4544 18.8894C18.4544 19.5008 18.9111 19.941 19.4936 19.941C19.7892 19.941 20.006 19.8278 20.1498 19.6476V19.8907H20.6014V18.8889L20.6012 18.8882ZM16.3684 18.8882C16.3684 19.4957 16.8071 19.9398 17.4767 19.9398C17.7895 19.9398 17.998 19.8727 18.2234 19.701L18.0065 19.349C17.8369 19.4665 17.6588 19.5293 17.4622 19.5293C17.1016 19.5251 16.8365 19.2737 16.8365 18.8882C16.8365 18.5027 17.1016 18.2515 17.4622 18.2471C17.6583 18.2471 17.8364 18.3099 18.0065 18.4274L18.2234 18.0754C17.9976 17.9037 17.7892 17.8366 17.4767 17.8366C16.8071 17.8366 16.3684 18.2806 16.3684 18.8882ZM22.192 17.8366C21.9314 17.8366 21.7617 17.9541 21.6443 18.1301V17.8873H21.1966V19.8896H21.6489V18.7672C21.6489 18.4358 21.7966 18.2517 22.0919 18.2517C22.1886 18.2504 22.2846 18.2675 22.3744 18.3021L22.5136 17.8917C22.4136 17.8537 22.2833 17.837 22.1918 17.837L22.192 17.8366ZM10.0833 18.0465C9.86594 17.9084 9.56647 17.837 9.23612 17.837C8.70982 17.837 8.37099 18.0802 8.37099 18.478C8.37099 18.8045 8.62325 19.0059 9.08777 19.0688L9.30117 19.098C9.54888 19.1316 9.66583 19.1944 9.66583 19.3075C9.66583 19.4624 9.50129 19.5507 9.19232 19.5507C8.87943 19.5507 8.65363 19.4543 8.50136 19.3412L8.28909 19.6807C8.5368 19.8567 8.84969 19.9406 9.18852 19.9406C9.78848 19.9406 10.1362 19.6683 10.1362 19.287C10.1362 18.9351 9.86253 18.7509 9.41041 18.6881L9.19751 18.6583C9.00196 18.6339 8.84526 18.596 8.84526 18.4618C8.84526 18.3154 8.99297 18.2273 9.2408 18.2273C9.50597 18.2273 9.76266 18.3237 9.88847 18.399L10.084 18.047L10.0833 18.0465ZM15.9121 17.8374C15.6515 17.8374 15.4817 17.9549 15.3649 18.1308V17.8873H14.9172V19.8896H15.369V18.7672C15.369 18.4358 15.5167 18.2517 15.812 18.2517C15.9087 18.2504 16.0047 18.2675 16.0945 18.3021L16.2337 17.8917C16.1337 17.8537 16.0033 17.837 15.9118 17.837L15.9121 17.8374ZM12.0572 17.8873H11.3185V17.2798H10.8618V17.8873H10.4405V18.2852H10.8618V19.1987C10.8618 19.6633 11.0489 19.94 11.5833 19.94C11.7793 19.94 12.0052 19.8814 12.1484 19.7852L12.0179 19.4123C11.8831 19.4876 11.7354 19.5256 11.618 19.5256C11.3922 19.5256 11.3185 19.3914 11.3185 19.1904V18.2856H12.0572V17.8873ZM5.30336 19.8901V18.6335C5.30336 18.1602 4.99047 17.8418 4.48608 17.8375C4.22091 17.8332 3.94738 17.9128 3.75588 18.1937C3.6126 17.9717 3.38679 17.8375 3.06935 17.8375C2.84746 17.8375 2.63064 17.9003 2.46091 18.1348V17.8873H2.00879V19.8896H2.46445V18.7794C2.46445 18.4318 2.66444 18.2471 2.97328 18.2471C3.27325 18.2471 3.42502 18.4356 3.42502 18.775V19.8894H3.88169V18.7791C3.88169 18.4315 4.09016 18.2468 4.39001 18.2468C4.69847 18.2468 4.84567 18.4353 4.84567 18.7747V19.8891L5.30336 19.8901Z" fill="#231F20"/>
<path d="M16.5923 14.1667H9.92578V1.66675H16.5924L16.5923 14.1667Z" fill="#FF5F00"/>
<path d="M10.6262 7.91667C10.6262 5.39159 11.8186 3.14224 13.6753 1.69266C12.2699 0.593783 10.5315 -0.00261366 8.74173 8.61048e-06C4.33277 8.61048e-06 0.758789 3.54436 0.758789 7.91667C0.758789 12.289 4.33277 15.8333 8.74173 15.8333C10.5316 15.836 12.27 15.2396 13.6755 14.1407C11.8189 12.6914 10.6262 10.4419 10.6262 7.91667Z" fill="#EB001B"/>
<path d="M26.1755 7.91667C26.1755 12.289 22.6017 15.8333 18.1929 15.8333C16.403 15.8359 14.6645 15.2395 13.2588 14.1407C15.1159 12.6911 16.3082 10.4419 16.3082 7.91667C16.3082 5.39146 15.1159 3.14224 13.2588 1.69266C14.6644 0.593816 16.4029 -0.0025677 18.1928 8.31014e-06C22.6015 8.31014e-06 26.1753 3.54436 26.1753 7.91667" fill="#F79E1B"/>
</g>
<defs>
<clipPath id="clip0_1074_5017">
<rect width="25.8333" height="20" fill="white" transform="translate(0.758789)"/>
</clipPath>
</defs>
</svg>
