<svg width="32" height="20" viewBox="0 0 32 20" fill="none" xmlns="http://www.w3.org/2000/svg">
<path d="M6.7773 6.77397C6.44134 6.54301 6.00294 6.42725 5.4621 6.42725H3.36826C3.20246 6.42725 3.11086 6.51017 3.09346 6.67585L2.2429 12.015C2.23406 12.0675 2.24718 12.1154 2.28214 12.159C2.3169 12.2027 2.36062 12.2244 2.41298 12.2244H3.40754C3.58198 12.2244 3.67786 12.1417 3.69546 11.9758L3.93098 10.5364C3.93958 10.4666 3.97026 10.4099 4.02262 10.3662C4.07494 10.3226 4.14038 10.2941 4.2189 10.2811C4.29742 10.2681 4.37146 10.2616 4.44138 10.2616C4.5111 10.2616 4.59394 10.266 4.69006 10.2747C4.78594 10.2834 4.84706 10.2876 4.87326 10.2876C5.6235 10.2876 6.21238 10.0762 6.63994 9.65297C7.0673 9.22993 7.28122 8.64329 7.28122 7.89281C7.28122 7.37809 7.1131 7.00517 6.7773 6.77385V6.77397ZM5.69774 8.37717C5.65398 8.68257 5.5407 8.88313 5.3575 8.97913C5.17426 9.07525 4.91254 9.12309 4.57234 9.12309L4.14046 9.13613L4.36298 7.73585C4.38034 7.63997 4.43702 7.59197 4.53306 7.59197H4.78178C5.13058 7.59197 5.38374 7.64225 5.54078 7.74241C5.69774 7.84281 5.7501 8.05445 5.69774 8.37717Z" fill="#003087"/>
<path d="M28.8733 6.42725H27.905C27.8088 6.42725 27.7521 6.47525 27.7349 6.57129L26.8842 12.0153L26.8711 12.0414C26.8711 12.0853 26.8885 12.1265 26.9235 12.1658C26.9582 12.205 27.0021 12.2246 27.0543 12.2246H27.9182C28.0837 12.2246 28.1753 12.1419 28.193 11.976L29.0436 6.62365V6.61065C29.0435 6.48845 28.9867 6.42741 28.8733 6.42741V6.42725Z" fill="#009CDE"/>
<path d="M17.1741 8.53452C17.1741 8.491 17.1566 8.44948 17.1219 8.41032C17.0869 8.37108 17.0476 8.35132 17.0041 8.35132H15.9965C15.9003 8.35132 15.8218 8.39516 15.7608 8.48216L14.3737 10.5237L13.7979 8.56076C13.7541 8.42128 13.6582 8.35132 13.51 8.35132H12.5284C12.4847 8.35132 12.4454 8.371 12.4108 8.41032C12.3758 8.44948 12.3584 8.49108 12.3584 8.53452C12.3584 8.55208 12.4435 8.80936 12.6136 9.30664C12.7836 9.80408 12.9668 10.3406 13.1632 10.9165C13.3595 11.4922 13.4619 11.7977 13.4707 11.8323C12.7552 12.8096 12.3977 13.333 12.3977 13.4027C12.3977 13.5162 12.4543 13.5729 12.5678 13.5729H13.5754C13.6714 13.5729 13.7498 13.5294 13.811 13.4421L17.1481 8.62608C17.1654 8.6088 17.1741 8.5784 17.1741 8.53448V8.53452Z" fill="#003087"/>
<path d="M26.5572 8.35112H25.5626C25.4403 8.35112 25.3664 8.49512 25.3402 8.78308C25.1131 8.4342 24.699 8.25952 24.0969 8.25952C23.4688 8.25952 22.9343 8.49512 22.4939 8.96624C22.0532 9.43736 21.833 9.99152 21.833 10.6283C21.833 11.1432 21.9835 11.5532 22.2844 11.8584C22.5854 12.164 22.9888 12.3164 23.495 12.3164C23.748 12.3164 24.0054 12.264 24.2671 12.1594C24.5288 12.0547 24.7336 11.9152 24.8822 11.7406C24.8822 11.7494 24.8733 11.7885 24.8561 11.8583C24.8384 11.9282 24.8298 11.9807 24.8298 12.0153C24.8298 12.1551 24.8864 12.2247 25 12.2247H25.903C26.0686 12.2247 26.1647 12.142 26.1908 11.9761L26.7274 8.56048C26.736 8.50808 26.723 8.4602 26.6881 8.41652C26.653 8.373 26.6095 8.35112 26.5572 8.35112ZM24.8494 10.9293C24.627 11.1474 24.3586 11.2564 24.0446 11.2564C23.7915 11.2564 23.5866 11.1867 23.4295 11.047C23.2724 10.9078 23.1939 10.7158 23.1939 10.4712C23.1939 10.1487 23.303 9.8758 23.5212 9.65336C23.739 9.43088 24.0097 9.31968 24.3325 9.31968C24.5766 9.31968 24.7794 9.39164 24.941 9.53552C25.1022 9.67952 25.1832 9.878 25.1832 10.1311C25.1831 10.4451 25.0719 10.7113 24.8494 10.9293Z" fill="#009CDE"/>
<path d="M11.6911 8.35112H10.6965C10.5742 8.35112 10.5002 8.49512 10.474 8.78308C10.2384 8.4342 9.824 8.25952 9.23076 8.25952C8.6026 8.25952 8.06816 8.49512 7.62764 8.96624C7.187 9.43736 6.9668 9.99152 6.9668 10.6283C6.9668 11.1432 7.11732 11.5532 7.41832 11.8584C7.71932 12.164 8.12272 12.3164 8.6288 12.3164C8.87296 12.3164 9.12612 12.264 9.3878 12.1594C9.64952 12.0547 9.85892 11.9152 10.016 11.7406C9.98096 11.8452 9.9636 11.9369 9.9636 12.0153C9.9636 12.1551 10.0203 12.2247 10.1337 12.2247H11.0367C11.2023 12.2247 11.2984 12.142 11.3246 11.9761L11.8611 8.56048C11.8697 8.50808 11.8567 8.4602 11.8219 8.41652C11.787 8.373 11.7434 8.35112 11.6911 8.35112ZM9.98332 10.9358C9.7608 11.1498 9.48804 11.2564 9.16544 11.2564C8.91228 11.2564 8.70944 11.1867 8.55688 11.047C8.40412 10.9078 8.32784 10.7158 8.32784 10.4712C8.32784 10.1487 8.43684 9.8758 8.65504 9.65336C8.873 9.43088 9.14348 9.31964 9.4664 9.31964C9.71056 9.31964 9.9134 9.39164 10.075 9.53552C10.2362 9.67952 10.317 9.878 10.317 10.1311C10.317 10.4539 10.2058 10.7222 9.98332 10.9358Z" fill="#003087"/>
<path d="M21.6436 6.77397C21.3077 6.54301 20.8694 6.42725 20.3284 6.42725H18.2476C18.0731 6.42725 17.9771 6.51017 17.9598 6.67585L17.1091 12.015C17.1003 12.0675 17.1134 12.1154 17.1484 12.159C17.183 12.2027 17.2268 12.2244 17.2792 12.2244H18.3522C18.4569 12.2244 18.5267 12.1678 18.5617 12.0544L18.7972 10.5364C18.8059 10.4666 18.8364 10.4099 18.8889 10.3662C18.9412 10.3226 19.0066 10.2941 19.0852 10.2811C19.1636 10.2681 19.2377 10.2616 19.3076 10.2616C19.3774 10.2616 19.4602 10.266 19.5562 10.2747C19.6522 10.2834 19.7134 10.2876 19.7394 10.2876C20.4898 10.2876 21.0786 10.0762 21.5062 9.65297C21.9337 9.22993 22.1474 8.64329 22.1474 7.89281C22.1474 7.37809 21.9794 7.00513 21.6436 6.77385V6.77397ZM20.3023 8.92673C20.1103 9.05757 19.8224 9.12297 19.4386 9.12297L19.0198 9.13609L19.2422 7.73577C19.2595 7.63993 19.3162 7.59185 19.4123 7.59185H19.6478C19.8398 7.59185 19.9924 7.60061 20.106 7.61801C20.2192 7.63553 20.3284 7.68997 20.4331 7.78153C20.5379 7.87317 20.5902 8.00629 20.5902 8.18069C20.5902 8.54725 20.4941 8.79577 20.3023 8.92673Z" fill="#009CDE"/>
</svg>
