<svg width="20" height="21" viewBox="0 0 20 21" fill="none" xmlns="http://www.w3.org/2000/svg">
<g clip-path="url(#clip0_1005_5160)">
<path fill-rule="evenodd" clip-rule="evenodd" d="M1.66699 3.25002C1.66699 2.78978 2.04009 2.41669 2.50033 2.41669H17.5003C17.9606 2.41669 18.3337 2.78978 18.3337 3.25002V5.40484C18.3337 5.84687 18.1581 6.27079 17.8455 6.58335L12.5003 11.9285V16.5834C12.5003 16.899 12.322 17.1876 12.0397 17.3287L8.70634 18.9954C8.44801 19.1245 8.14123 19.1107 7.89555 18.9589C7.64987 18.8071 7.50033 18.5388 7.50033 18.25V11.9285L2.15515 6.58335C1.84259 6.27079 1.66699 5.84687 1.66699 5.40484V3.25002ZM3.33366 4.08335V5.40484L8.92291 10.9941C9.0792 11.1504 9.16699 11.3623 9.16699 11.5834V16.9017L10.8337 16.0683V11.5834C10.8337 11.3623 10.9215 11.1504 11.0777 10.9941L16.667 5.40484V4.08335H3.33366Z" fill="#8A8A8A"/>
</g>
<defs>
<clipPath id="clip0_1005_5160">
<rect width="16.6667" height="16.6667" fill="white" transform="translate(1.66699 2.41669)"/>
</clipPath>
</defs>
</svg>
