<svg width="20" height="21" viewBox="0 0 20 21" fill="none" xmlns="http://www.w3.org/2000/svg">
<g clip-path="url(#clip0_999_5705)">
<path fill-rule="evenodd" clip-rule="evenodd" d="M1.66699 3.25008C1.66699 2.78984 2.04009 2.41675 2.50033 2.41675H17.5003C17.9606 2.41675 18.3337 2.78984 18.3337 3.25008V5.4049C18.3337 5.84693 18.1581 6.27085 17.8455 6.58342L12.5003 11.9286V16.5834C12.5003 16.8991 12.322 17.1876 12.0397 17.3288L8.70634 18.9954C8.44801 19.1246 8.14123 19.1108 7.89555 18.959C7.64987 18.8071 7.50033 18.5389 7.50033 18.2501V11.9286L2.15515 6.58341C1.84259 6.27085 1.66699 5.84693 1.66699 5.4049V3.25008ZM3.33366 4.08341V5.4049L8.92291 10.9942C9.0792 11.1504 9.16699 11.3624 9.16699 11.5834V16.9017L10.8337 16.0684V11.5834C10.8337 11.3624 10.9215 11.1504 11.0777 10.9942L16.667 5.4049V4.08341H3.33366Z" fill="#8A8A8A"/>
</g>
<defs>
<clipPath id="clip0_999_5705">
<rect width="16.6667" height="16.6667" fill="white" transform="translate(1.66699 2.41675)"/>
</clipPath>
</defs>
</svg>
