<svg width="20" height="21" viewBox="0 0 20 21" fill="none" xmlns="http://www.w3.org/2000/svg">
<path d="M10 17C10.4167 17 10.7707 16.854 11.062 16.562C11.354 16.2707 11.5 15.9167 11.5 15.5H8.5C8.5 15.9167 8.646 16.2707 8.938 16.562C9.22933 16.854 9.58333 17 10 17ZM5 14.5H15V12.5H14V9.9C14 8.88333 13.7377 7.954 13.213 7.112C12.6877 6.27067 11.95 5.73333 11 5.5V4H9V5.5C8.05 5.73333 7.31267 6.27067 6.788 7.112C6.26267 7.954 6 8.88333 6 9.9V12.5H5V14.5ZM10 20.5C8.61667 20.5 7.31667 20.2373 6.1 19.712C4.88333 19.1873 3.825 18.475 2.925 17.575C2.025 16.675 1.31267 15.6167 0.788 14.4C0.262667 13.1833 0 11.8833 0 10.5C0 9.11667 0.262667 7.81667 0.788 6.6C1.31267 5.38333 2.025 4.325 2.925 3.425C3.825 2.525 4.88333 1.81233 6.1 1.287C7.31667 0.762333 8.61667 0.5 10 0.5C11.3833 0.5 12.6833 0.762333 13.9 1.287C15.1167 1.81233 16.175 2.525 17.075 3.425C17.975 4.325 18.6873 5.38333 19.212 6.6C19.7373 7.81667 20 9.11667 20 10.5C20 11.8833 19.7373 13.1833 19.212 14.4C18.6873 15.6167 17.975 16.675 17.075 17.575C16.175 18.475 15.1167 19.1873 13.9 19.712C12.6833 20.2373 11.3833 20.5 10 20.5Z" fill="#16A34A"/>
</svg>
