<svg width="24" height="25" viewBox="0 0 24 25" fill="none" xmlns="http://www.w3.org/2000/svg">
<path d="M22.1333 24.75L13.7333 16.35C13.0667 16.8833 12.3 17.3056 11.4333 17.6167C10.5667 17.9278 9.64444 18.0833 8.66667 18.0833C6.24444 18.0833 4.19467 17.2442 2.51733 15.566C0.84 13.8878 0.000888889 11.838 0 9.41667C0 6.99444 0.839111 4.94467 2.51733 3.26733C4.19556 1.59 6.24533 0.750889 8.66667 0.75C11.0889 0.75 13.1387 1.58911 14.816 3.26733C16.4933 4.94556 17.3324 6.99533 17.3333 9.41667C17.3333 10.3944 17.1778 11.3167 16.8667 12.1833C16.5556 13.05 16.1333 13.8167 15.6 14.4833L24 22.8833L22.1333 24.75ZM8.66667 15.4167C10.3333 15.4167 11.7502 14.8331 12.9173 13.666C14.0844 12.4989 14.6676 11.0824 14.6667 9.41667C14.6667 7.75 14.0831 6.33311 12.916 5.166C11.7489 3.99889 10.3324 3.41578 8.66667 3.41667C7 3.41667 5.58311 4.00022 4.416 5.16733C3.24889 6.33444 2.66578 7.75089 2.66667 9.41667C2.66667 11.0833 3.25022 12.5002 4.41733 13.6673C5.58444 14.8344 7.00089 15.4176 8.66667 15.4167Z" fill="#16A34A"/>
</svg>
